<svg width="28" height="27" viewBox="0 0 28 27" fill="none" xmlns="http://www.w3.org/2000/svg">
<path d="M26.625 13.5C26.625 20.4036 20.8886 26 13.8125 26C6.73635 26 1 20.4036 1 13.5C1 6.59644 6.73635 1 13.8125 1C20.8886 1 26.625 6.59644 26.625 13.5Z" fill="#008ECB"/>
<path d="M19.0955 20.6661L19.6895 23.6364L19.75 23.7939C22.9454 21.9202 25.1873 18.596 25.5716 14.7254H25.0362L19.6895 14.1313L16.1251 15.3194V19.4779L19.0955 20.6661Z" fill="#007822"/>
<path d="M8.99624 16.5076L2.46146 14.1313L1.86928 13.7515C1.9547 18.5813 4.92209 22.7081 9.12501 24.4854V24.125L7.8081 20.6661L8.99624 16.5076Z" fill="#007822"/>
<path d="M22.0658 5.81429L21.4717 7.59651L17.3132 8.19058V11.755L20.2836 10.5669H22.6599L25.0362 11.755H25.4975C25.1186 9.23644 23.9492 6.97677 22.25 5.23675L22.0658 5.81429Z" fill="#007822"/>
<path d="M2.46146 11.755L5.43182 9.37872L8.40217 8.78465L10.7785 5.22022L9.59032 2.84394L9.40697 2.47411C5.39693 4.04913 2.45077 7.74141 1.94465 12.1748L2.46146 11.755Z" fill="#007822"/>
<path d="M9.12501 24.4854C10.5462 25.0863 12.1087 25.4187 13.7488 25.4187C15.9379 25.4187 17.9888 24.8266 19.75 23.7939M9.12501 24.4854V24.125L7.8081 20.6661L8.99624 16.5076L2.46146 14.1313L1.86928 13.7515M9.12501 24.4854C4.92209 22.7081 1.9547 18.5813 1.86928 13.7515M19.75 23.7939L19.6895 23.6364L19.0955 20.6661L16.1251 19.4779V15.3194L19.6895 14.1313L25.0362 14.7254H25.5716M19.75 23.7939C22.9454 21.9202 25.1873 18.596 25.5716 14.7254M25.5716 14.7254C25.6104 14.3346 25.6302 13.9382 25.6302 13.5372C25.6302 12.9315 25.5849 12.3364 25.4975 11.755M25.4975 11.755H25.0362L22.6599 10.5669H20.2836L17.3132 11.755V8.19058L21.4717 7.59651L22.0658 5.81429L22.25 5.23675M25.4975 11.755C25.1186 9.23644 23.9492 6.97677 22.25 5.23675M22.25 5.23675C20.0925 3.02737 17.0808 1.65579 13.7488 1.65579C12.2165 1.65579 10.7519 1.94587 9.40697 2.47411M9.40697 2.47411L9.59032 2.84394L10.7785 5.22022L8.40217 8.78465L5.43182 9.37872L2.46146 11.755L1.94465 12.1748M9.40697 2.47411C5.39693 4.04913 2.45077 7.74141 1.94465 12.1748M1.94465 12.1748C1.89361 12.6219 1.86739 13.0765 1.86739 13.5372C1.86739 13.6088 1.86802 13.6802 1.86928 13.7515M26.625 13.5C26.625 20.4036 20.8886 26 13.8125 26C6.73635 26 1 20.4036 1 13.5C1 6.59644 6.73635 1 13.8125 1C20.8886 1 26.625 6.59644 26.625 13.5Z" stroke="black" stroke-linecap="round" stroke-linejoin="round"/>
</svg>
