<svg width="27" height="27" viewBox="0 0 27 27" fill="none" xmlns="http://www.w3.org/2000/svg">
<path d="M21.5882 1H1.88235C1.39504 1 1 1.39504 1 1.88235V21.5882M5.41176 19.8235L13.4182 17.1765L26 21.5882M26 6.29416V25.1177C26 25.6051 25.605 26.0001 25.1177 26.0001H6.29411C5.8068 26.0001 5.41176 25.6051 5.41176 25.1177V6.29416C5.41176 5.80685 5.8068 5.4118 6.29411 5.4118H25.1177C25.605 5.4118 26 5.80685 26 6.29416ZM19.3824 14.2353C18.1641 14.2353 17.1765 13.2477 17.1765 12.0294C17.1765 10.8112 18.1641 9.82355 19.3824 9.82355C20.6006 9.82355 21.5882 10.8112 21.5882 12.0294C21.5882 13.2477 20.6006 14.2353 19.3824 14.2353Z" stroke="#737373" stroke-width="2" stroke-linecap="round" stroke-linejoin="round"/>
</svg>
